<?xml version="1.0" encoding="UTF-8"?>
<svg id="Complications_Suite" data-name="Complications Suite" xmlns="http://www.w3.org/2000/svg" viewBox="0 0 12 12">
  <defs>
    <style>
      .cls-1 {
        fill: #ccecff;
      }

      .cls-1, .cls-2, .cls-3, .cls-4 {
        stroke-width: 0px;
      }

      .cls-5 {
        fill: none;
        stroke: #000;
        stroke-miterlimit: 10;
        stroke-width: .6px;
      }

      .cls-2 {
        opacity: .85;
      }

      .cls-2, .cls-4 {
        fill: #000;
      }

      .cls-3 {
        fill: #c9c5bf;
      }

      .cls-4 {
        isolation: isolate;
        opacity: .55;
      }
    </style>
  </defs>
  <rect id="BG" class="cls-3" width="12" height="12" rx="3" ry="3"/>
  <path class="cls-4" d="M5.61,1h.79c.77,0,1.15,0,1.43.22.27.22.36.6.52,1.35l.15.68.08.39c-.66-.72-1.6-1.13-2.58-1.13s-1.94.43-2.58,1.13l.08-.39.15-.68c.17-.75.25-1.13.52-1.35s.66-.22,1.43-.22"/>
  <path class="cls-4" d="M8.58,8.36c-.66.72-1.6,1.13-2.58,1.13s-1.94-.44-2.58-1.13l.08.39.15.68c.17.75.25,1.13.52,1.35s.66.22,1.43.22h.79c.77,0,1.15,0,1.43-.22s.36-.6.52-1.35l.15-.68.08-.39h.01Z"/>
  <circle class="cls-2" cx="6" cy="6" r="3"/>
  <path class="cls-5" d="M6,9.22c1.78,0,3.22-1.44,3.22-3.22s-1.44-3.22-3.22-3.22-3.22,1.44-3.22,3.22,1.44,3.22,3.22,3.22"/>
  <path class="cls-1" d="M4.42,5.51v-.91s.02-.09.05-.12c.03-.03.07-.05.12-.05h.91s.09.02.12.05c.03.03.05.07.05.12v.91s-.02.09-.05.12-.07.05-.12.05h-.91s-.09-.02-.12-.05c-.03-.03-.05-.07-.05-.12M6.83,5.82l-.65-.65s-.05-.07-.05-.12c0-.05.02-.09.05-.12l.65-.65s.07-.05.12-.05c.05,0,.09.02.12.05l.65.65s.05.07.05.12-.02.09-.05.12l-.65.65s-.07.05-.12.05c-.05,0-.09-.02-.12-.05M6.33,7.41v-.91s.02-.09.05-.12.07-.05.12-.05h.91s.09.02.12.05c.03.03.05.07.05.12v.91s-.02.09-.05.12c-.03.03-.07.05-.12.05h-.91s-.09-.02-.12-.05c-.03-.03-.05-.07-.05-.12M4.42,7.41v-.91s.02-.09.05-.12c.03-.03.07-.05.12-.05h.91s.09.02.12.05c.03.03.05.07.05.12v.91s-.02.09-.05.12c-.03.03-.07.05-.12.05h-.91s-.09-.02-.12-.05c-.03-.03-.05-.07-.05-.12"/>
</svg>